<svg xmlns="http://www.w3.org/2000/svg" viewBox="0 0 512 512">
  <g fill="#aaa">
    <path d="m398.071 19.213 4.73.117c50.114 2.461 89.989 43.875 89.989 94.598v189.43l-.118 4.727c-2.464 50.113-43.875 89.988-94.602 89.988l-.113 4.73c-2.465 50.113-43.875 89.988-94.602 89.988h-189.43l-4.727-.117c-50.113-2.465-89.988-43.875-89.988-94.602v-189.43l.118-4.727c2.46-50.117 43.875-89.992 94.598-89.992l.117-4.726c2.465-50.113 43.875-89.988 94.602-89.988zm-284.15 142.07-3.531.129c-24.508 1.808-43.824 22.262-43.824 47.23v189.43l.129 3.535c1.808 24.504 22.262 43.824 47.227 43.824h189.43l3.535-.129c24.504-1.808 43.824-22.262 43.824-47.23H208.64l-4.727-.113c-50.117-2.465-89.992-43.875-89.992-94.602zm284.15-94.715h-189.43l-3.535.129c-24.504 1.808-43.824 22.262-43.824 47.227v189.43l.129 3.535c1.808 24.504 22.262 43.824 47.23 43.824h189.43c26.156 0 47.359-21.203 47.359-47.359v-189.43l-.13-3.531c-1.808-24.508-22.261-43.824-47.23-43.824zm-23.676 47.355c8.645 0 15.523 4.285 19.602 10.37.2.317.406.634.602.958a23.726 23.726 0 0 1 1.84 3.707 24.05 24.05 0 0 1 1.648 10.082l-.016 93.281c0 13.074-10.602 23.676-23.676 23.676-12.145 0-22.152-9.14-23.523-20.918l-.156-2.758v-37.559l-77.973 77.98c-9.25 9.246-24.242 9.246-33.488 0-8.535-8.535-9.191-21.969-1.969-31.258l1.969-2.23 77.93-77.973h-37.508c-12.145 0-22.152-9.14-23.52-20.918l-.16-2.762c0-12.145 9.14-22.152 20.918-23.52l2.761-.16z"/>
  </g>
</svg>
